<?xml version="1.0" standalone="no"?><svg xmlns="http://www.w3.org/2000/svg" viewBox="0 0 1440 320"><path fill="#00cba9" fill-opacity="1" d="M0,288L30,277.3C60,267,120,245,180,240C240,235,300,245,360,224C420,203,480,149,540,122.7C600,96,660,96,720,106.7C780,117,840,139,900,144C960,149,1020,139,1080,117.3C1140,96,1200,64,1260,48C1320,32,1380,32,1410,32L1440,32L1440,320L1410,320C1380,320,1320,320,1260,320C1200,320,1140,320,1080,320C1020,320,960,320,900,320C840,320,780,320,720,320C660,320,600,320,540,320C480,320,420,320,360,320C300,320,240,320,180,320C120,320,60,320,30,320L0,320Z"></path></svg>