<?xml version="1.0" standalone="no"?><svg xmlns="http://www.w3.org/2000/svg" viewBox="0 0 1440 320"><path fill="#00cba9" fill-opacity="0.8" d="M0,128L40,154.7C80,181,160,235,240,250.7C320,267,400,245,480,250.7C560,256,640,288,720,256C800,224,880,128,960,90.7C1040,53,1120,75,1200,101.3C1280,128,1360,160,1400,176L1440,192L1440,320L1400,320C1360,320,1280,320,1200,320C1120,320,1040,320,960,320C880,320,800,320,720,320C640,320,560,320,480,320C400,320,320,320,240,320C160,320,80,320,40,320L0,320Z"></path></svg>